ffmpeg started on 2026-01-05 at 18:16:48
Report written to "D:\Convert\FFMetrics\reports\psnr_report-6.txt"
Log level: 32
Command line:
ffmpeg -hide_banner -nostdin -r 24000/1001 -i "F:\\Convert\\files\\[DC] Make Heroine ga Oosugiru - 07_Telegram_HEVC(55).mkv" -r 24000/1001 -i "F:\\Convert\\files\\[DC] Make Heroine ga Oosugiru - 07_Telegram.mp4" -lavfi "[0:v]settb=AVTB,setpts=PTS-STARTPTS,format=pix_fmts=yuv420p10le,fps=24000/1001,scale=1920:1080:flags=bicubic[main];[1:v]settb=AVTB,setpts=PTS-STARTPTS,format=pix_fmts=yuv420p,fps=24000/1001,scale=1920:1080:flags=bicubic[ref];[main][ref]psnr=eof_action=endall:stats_file='D\\:/Convert/FFMetrics/logs/psnr_logfile-6.txt'" -f null -
Input #0, matroska,webm, from 'F:\Convert\files\[DC] Make Heroine ga Oosugiru - 07_Telegram_HEVC(55).mkv':
  Metadata:
    COMPATIBLE_BRANDS: isomiso2avc1mp41
    MAJOR_BRAND     : isom
    MINOR_VERSION   : 512
    ENCODER         : Lavf61.7.100
  Duration: 00:24:06.79, start: -0.021000, bitrate: 981 kb/s
  Stream #0:0: Video: hevc (Main 10), yuv420p10le(tv, bt709, progressive), 1920x1080 [SAR 1:1 DAR 16:9], 23.98 fps, 23.98 tbr, 1k tbn (default)
      Metadata:
        HANDLER_NAME    : VideoHandler
        VENDOR_ID       : [0][0][0][0]
        ENCODER         : Lavc61.19.100 libx265
        BPS             : 784101
        DURATION        : 00:24:06.569708333
        NUMBER_OF_FRAMES: 34683
        NUMBER_OF_BYTES : 141782036
        _STATISTICS_WRITING_APP: mkvpropedit v94.0 ('Initiate') 64-bit
        _STATISTICS_WRITING_DATE_UTC: 2026-01-05 12:08:19
        _STATISTICS_TAGS: BPS DURATION NUMBER_OF_FRAMES NUMBER_OF_BYTES
  Stream #0:1: Audio: aac (LC), 48000 Hz, stereo, fltp (default)
      Metadata:
        HANDLER_NAME    : SoundHandler
        VENDOR_ID       : [0][0][0][0]
        ENCODER         : Lavc61.19.100 aac
        BPS             : 193194
        DURATION        : 00:24:06.784000000
        NUMBER_OF_FRAMES: 67819
        NUMBER_OF_BYTES : 34938755
        _STATISTICS_WRITING_APP: mkvpropedit v94.0 ('Initiate') 64-bit
        _STATISTICS_WRITING_DATE_UTC: 2026-01-05 12:08:19
        _STATISTICS_TAGS: BPS DURATION NUMBER_OF_FRAMES NUMBER_OF_BYTES
Input #1, mov,mp4,m4a,3gp,3g2,mj2, from 'F:\Convert\files\[DC] Make Heroine ga Oosugiru - 07_Telegram.mp4':
  Metadata:
    major_brand     : isom
    minor_version   : 512
    compatible_brands: isomiso2avc1mp41
    encoder         : Lavf60.16.100
  Duration: 00:24:06.74, start: 0.000000, bitrate: 3764 kb/s
  Stream #1:0[0x1](und): Video: h264 (High) (avc1 / 0x31637661), yuv420p(tv, bt709, progressive), 1920x1080 [SAR 1:1 DAR 16:9], 3616 kb/s, 23.98 fps, 23.98 tbr, 24k tbn (default)
      Metadata:
        handler_name    : VideoHandler
        vendor_id       : [0][0][0][0]
        encoder         : Lavc60.31.102 h264_qsv
  Stream #1:1[0x2](und): Audio: aac (HE-AACv2) (mp4a / 0x6134706D), 48000 Hz, stereo, fltp, 144 kb/s (default)
      Metadata:
        handler_name    : SoundHandler
        vendor_id       : [0][0][0][0]
Stream mapping:
  Stream #0:0 (hevc) -> settb:default
  Stream #1:0 (h264) -> settb:default
  psnr:default -> Stream #0:0 (wrapped_avframe)
  Stream #0:1 -> #0:1 (aac (native) -> pcm_s16le (native))
Output #0, null, to 'pipe:':
  Metadata:
    COMPATIBLE_BRANDS: isomiso2avc1mp41
    MAJOR_BRAND     : isom
    MINOR_VERSION   : 512
    encoder         : Lavf61.7.100
  Stream #0:0: Video: wrapped_avframe, yuv420p10le(tv, bt709, progressive), 1920x1080 [SAR 1:1 DAR 16:9], q=2-31, 200 kb/s, 23.98 fps, 23.98 tbn
      Metadata:
        encoder         : Lavc61.19.100 wrapped_avframe
  Stream #0:1: Audio: pcm_s16le, 48000 Hz, stereo, s16, 1536 kb/s (default)
      Metadata:
        HANDLER_NAME    : SoundHandler
        VENDOR_ID       : [0][0][0][0]
        _STATISTICS_TAGS: BPS DURATION NUMBER_OF_FRAMES NUMBER_OF_BYTES
        BPS             : 193194
        DURATION        : 00:24:06.784000000
        NUMBER_OF_FRAMES: 67819
        NUMBER_OF_BYTES : 34938755
        _STATISTICS_WRITING_APP: mkvpropedit v94.0 ('Initiate') 64-bit
        _STATISTICS_WRITING_DATE_UTC: 2026-01-05 12:08:19
        encoder         : Lavc61.19.100 pcm_s16le
frame=  179 fps=0.0 q=-0.0 size=N/A time=00:00:07.46 bitrate=N/A speed=14.5x    frame=  450 fps=435 q=-0.0 size=N/A time=00:00:18.76 bitrate=N/A speed=18.1x    frame=  731 fps=470 q=-0.0 size=N/A time=00:00:30.48 bitrate=N/A speed=19.6x    frame=  934 fps=450 q=-0.0 size=N/A time=00:00:38.95 bitrate=N/A speed=18.8x    frame= 1100 fps=426 q=-0.0 size=N/A time=00:00:45.87 bitrate=N/A speed=17.8x    frame= 1273 fps=410 q=-0.0 size=N/A time=00:00:53.09 bitrate=N/A speed=17.1x    frame= 1449 fps=401 q=-0.0 size=N/A time=00:01:00.43 bitrate=N/A speed=16.7x    frame= 1610 fps=389 q=-0.0 size=N/A time=00:01:07.15 bitrate=N/A speed=16.2x    frame= 1778 fps=383 q=-0.0 size=N/A time=00:01:14.15 bitrate=N/A speed=  16x    frame= 1962 fps=380 q=-0.0 size=N/A time=00:01:21.83 bitrate=N/A speed=15.9x    frame= 2095 fps=369 q=-0.0 size=N/A time=00:01:27.37 bitrate=N/A speed=15.4x    frame= 2263 fps=365 q=-0.0 size=N/A time=00:01:34.38 bitrate=N/A speed=15.2x    frame= 2419 fps=360 q=-0.0 size=N/A time=00:01:40.89 bitrate=N/A speed=  15x    frame= 2560 fps=355 q=-0.0 size=N/A time=00:01:46.77 bitrate=N/A speed=14.8x    frame= 2750 fps=355 q=-0.0 size=N/A time=00:01:54.69 bitrate=N/A speed=14.8x    frame= 2960 fps=359 q=-0.0 size=N/A time=00:02:03.45 bitrate=N/A speed=  15x    frame= 3233 fps=368 q=-0.0 size=N/A time=00:02:14.84 bitrate=N/A speed=15.4x    frame= 3515 fps=378 q=-0.0 size=N/A time=00:02:26.60 bitrate=N/A speed=15.8x    frame= 3787 fps=386 q=-0.0 size=N/A time=00:02:37.94 bitrate=N/A speed=16.1x    frame= 4073 fps=394 q=-0.0 size=N/A time=00:02:49.87 bitrate=N/A speed=16.5x    frame= 4346 fps=401 q=-0.0 size=N/A time=00:03:01.26 bitrate=N/A speed=16.7x    frame= 4629 fps=408 q=-0.0 size=N/A time=00:03:13.06 bitrate=N/A speed=  17x    frame= 4896 fps=413 q=-0.0 size=N/A time=00:03:24.20 bitrate=N/A speed=17.2x    frame= 5166 fps=417 q=-0.0 size=N/A time=00:03:35.46 bitrate=N/A speed=17.4x    frame= 5446 fps=422 q=-0.0 size=N/A time=00:03:47.14 bitrate=N/A speed=17.6x    frame= 5722 fps=427 q=-0.0 size=N/A time=00:03:58.65 bitrate=N/A speed=17.8x    frame= 5997 fps=431 q=-0.0 size=N/A time=00:04:10.12 bitrate=N/A speed=  18x    frame= 6266 fps=434 q=-0.0 size=N/A time=00:04:21.34 bitrate=N/A speed=18.1x    frame= 6550 fps=438 q=-0.0 size=N/A time=00:04:33.18 bitrate=N/A speed=18.3x    frame= 6828 fps=441 q=-0.0 size=N/A time=00:04:44.78 bitrate=N/A speed=18.4x    frame= 7088 fps=443 q=-0.0 size=N/A time=00:04:55.62 bitrate=N/A speed=18.5x    frame= 7352 fps=445 q=-0.0 size=N/A time=00:05:06.68 bitrate=N/A speed=18.6x    frame= 7598 fps=446 q=-0.0 size=N/A time=00:05:16.89 bitrate=N/A speed=18.6x    frame= 7836 fps=446 q=-0.0 size=N/A time=00:05:26.82 bitrate=N/A speed=18.6x    frame= 8104 fps=448 q=-0.0 size=N/A time=00:05:38.00 bitrate=N/A speed=18.7x    frame= 8366 fps=450 q=-0.0 size=N/A time=00:05:48.93 bitrate=N/A speed=18.8x    frame= 8628 fps=452 q=-0.0 size=N/A time=00:05:59.85 bitrate=N/A speed=18.8x    frame= 8892 fps=453 q=-0.0 size=N/A time=00:06:10.91 bitrate=N/A speed=18.9x    frame= 9149 fps=455 q=-0.0 size=N/A time=00:06:21.58 bitrate=N/A speed=  19x    frame= 9410 fps=456 q=-0.0 size=N/A time=00:06:32.47 bitrate=N/A speed=  19x    frame= 9674 fps=457 q=-0.0 size=N/A time=00:06:43.48 bitrate=N/A speed=19.1x    frame= 9940 fps=459 q=-0.0 size=N/A time=00:06:54.58 bitrate=N/A speed=19.1x    frame=10197 fps=460 q=-0.0 size=N/A time=00:07:05.29 bitrate=N/A speed=19.2x    frame=10464 fps=461 q=-0.0 size=N/A time=00:07:16.43 bitrate=N/A speed=19.2x    frame=10719 fps=462 q=-0.0 size=N/A time=00:07:27.07 bitrate=N/A speed=19.3x    frame=10972 fps=462 q=-0.0 size=N/A time=00:07:37.62 bitrate=N/A speed=19.3x    frame=11213 fps=462 q=-0.0 size=N/A time=00:07:47.67 bitrate=N/A speed=19.3x    frame=11465 fps=463 q=-0.0 size=N/A time=00:07:58.18 bitrate=N/A speed=19.3x    frame=11736 fps=464 q=-0.0 size=N/A time=00:08:09.48 bitrate=N/A speed=19.4x    frame=11999 fps=465 q=-0.0 size=N/A time=00:08:20.45 bitrate=N/A speed=19.4x    frame=12280 fps=467 q=-0.0 size=N/A time=00:08:32.17 bitrate=N/A speed=19.5x    frame=12539 fps=467 q=-0.0 size=N/A time=00:08:42.98 bitrate=N/A speed=19.5x    frame=12810 fps=468 q=-0.0 size=N/A time=00:08:54.28 bitrate=N/A speed=19.5x    frame=13073 fps=469 q=-0.0 size=N/A time=00:09:05.25 bitrate=N/A speed=19.6x    frame=13310 fps=469 q=-0.0 size=N/A time=00:09:15.13 bitrate=N/A speed=19.6x    frame=13559 fps=469 q=-0.0 size=N/A time=00:09:25.52 bitrate=N/A speed=19.6x    frame=13828 fps=470 q=-0.0 size=N/A time=00:09:36.74 bitrate=N/A speed=19.6x    frame=14067 fps=470 q=-0.0 size=N/A time=00:09:46.71 bitrate=N/A speed=19.6x    frame=14301 fps=470 q=-0.0 size=N/A time=00:09:56.47 bitrate=N/A speed=19.6x    frame=14559 fps=470 q=-0.0 size=N/A time=00:10:07.23 bitrate=N/A speed=19.6x    frame=14815 fps=471 q=-0.0 size=N/A time=00:10:17.90 bitrate=N/A speed=19.6x    frame=15056 fps=471 q=-0.0 size=N/A time=00:10:27.96 bitrate=N/A speed=19.6x    frame=15257 fps=469 q=-0.0 size=N/A time=00:10:36.34 bitrate=N/A speed=19.6x    frame=15513 fps=470 q=-0.0 size=N/A time=00:10:47.02 bitrate=N/A speed=19.6x    frame=15775 fps=470 q=-0.0 size=N/A time=00:10:57.94 bitrate=N/A speed=19.6x    frame=16045 fps=471 q=-0.0 size=N/A time=00:11:09.21 bitrate=N/A speed=19.7x    frame=16324 fps=472 q=-0.0 size=N/A time=00:11:20.84 bitrate=N/A speed=19.7x    frame=16571 fps=472 q=-0.0 size=N/A time=00:11:31.14 bitrate=N/A speed=19.7x    frame=16847 fps=473 q=-0.0 size=N/A time=00:11:42.66 bitrate=N/A speed=19.7x    frame=17122 fps=474 q=-0.0 size=N/A time=00:11:54.13 bitrate=N/A speed=19.8x    frame=17391 fps=475 q=-0.0 size=N/A time=00:12:05.34 bitrate=N/A speed=19.8x    frame=17635 fps=475 q=-0.0 size=N/A time=00:12:15.52 bitrate=N/A speed=19.8x    frame=17883 fps=475 q=-0.0 size=N/A time=00:12:25.87 bitrate=N/A speed=19.8x    frame=18157 fps=475 q=-0.0 size=N/A time=00:12:37.29 bitrate=N/A speed=19.8x    frame=18356 fps=474 q=-0.0 size=N/A time=00:12:45.59 bitrate=N/A speed=19.8x    frame=18604 fps=474 q=-0.0 size=N/A time=00:12:55.94 bitrate=N/A speed=19.8x    frame=18872 fps=475 q=-0.0 size=N/A time=00:13:07.11 bitrate=N/A speed=19.8x    frame=19152 fps=476 q=-0.0 size=N/A time=00:13:18.79 bitrate=N/A speed=19.8x    frame=19418 fps=476 q=-0.0 size=N/A time=00:13:29.89 bitrate=N/A speed=19.9x    frame=19698 fps=477 q=-0.0 size=N/A time=00:13:41.57 bitrate=N/A speed=19.9x    frame=19973 fps=478 q=-0.0 size=N/A time=00:13:53.04 bitrate=N/A speed=19.9x    frame=20250 fps=479 q=-0.0 size=N/A time=00:14:04.59 bitrate=N/A speed=  20x    frame=20492 fps=478 q=-0.0 size=N/A time=00:14:14.68 bitrate=N/A speed=  20x    frame=20727 fps=478 q=-0.0 size=N/A time=00:14:24.48 bitrate=N/A speed=19.9x    frame=20999 fps=479 q=-0.0 size=N/A time=00:14:35.83 bitrate=N/A speed=  20x    frame=21274 fps=479 q=-0.0 size=N/A time=00:14:47.30 bitrate=N/A speed=  20x    frame=21539 fps=480 q=-0.0 size=N/A time=00:14:58.35 bitrate=N/A speed=  20x    frame=21811 fps=480 q=-0.0 size=N/A time=00:15:09.70 bitrate=N/A speed=  20x    frame=22087 fps=481 q=-0.0 size=N/A time=00:15:21.21 bitrate=N/A speed=20.1x    frame=22359 fps=481 q=-0.0 size=N/A time=00:15:32.55 bitrate=N/A speed=20.1x    frame=22624 fps=482 q=-0.0 size=N/A time=00:15:43.60 bitrate=N/A speed=20.1x    frame=22869 fps=482 q=-0.0 size=N/A time=00:15:53.82 bitrate=N/A speed=20.1x    frame=23127 fps=482 q=-0.0 size=N/A time=00:16:04.58 bitrate=N/A speed=20.1x    frame=23381 fps=482 q=-0.0 size=N/A time=00:16:15.18 bitrate=N/A speed=20.1x    frame=23649 fps=482 q=-0.0 size=N/A time=00:16:26.36 bitrate=N/A speed=20.1x    frame=23903 fps=483 q=-0.0 size=N/A time=00:16:36.95 bitrate=N/A speed=20.1x    frame=24151 fps=482 q=-0.0 size=N/A time=00:16:47.29 bitrate=N/A speed=20.1x    frame=24407 fps=483 q=-0.0 size=N/A time=00:16:57.97 bitrate=N/A speed=20.1x    frame=24673 fps=483 q=-0.0 size=N/A time=00:17:09.06 bitrate=N/A speed=20.1x    frame=24942 fps=483 q=-0.0 size=N/A time=00:17:20.28 bitrate=N/A speed=20.2x    frame=25212 fps=484 q=-0.0 size=N/A time=00:17:31.55 bitrate=N/A speed=20.2x    frame=25480 fps=484 q=-0.0 size=N/A time=00:17:42.72 bitrate=N/A speed=20.2x    frame=25756 fps=485 q=-0.0 size=N/A time=00:17:54.23 bitrate=N/A speed=20.2x    frame=26034 fps=485 q=-0.0 size=N/A time=00:18:05.83 bitrate=N/A speed=20.2x    frame=26308 fps=486 q=-0.0 size=N/A time=00:18:17.26 bitrate=N/A speed=20.2x    frame=26577 fps=486 q=-0.0 size=N/A time=00:18:28.48 bitrate=N/A speed=20.3x    frame=26850 fps=486 q=-0.0 size=N/A time=00:18:39.86 bitrate=N/A speed=20.3x    frame=27062 fps=486 q=-0.0 size=N/A time=00:18:48.71 bitrate=N/A speed=20.3x    frame=27291 fps=485 q=-0.0 size=N/A time=00:18:58.26 bitrate=N/A speed=20.2x    frame=27529 fps=485 q=-0.0 size=N/A time=00:19:08.18 bitrate=N/A speed=20.2x    frame=27774 fps=485 q=-0.0 size=N/A time=00:19:18.40 bitrate=N/A speed=20.2x    frame=28014 fps=485 q=-0.0 size=N/A time=00:19:28.41 bitrate=N/A speed=20.2x    frame=28258 fps=485 q=-0.0 size=N/A time=00:19:38.59 bitrate=N/A speed=20.2x    frame=28498 fps=485 q=-0.0 size=N/A time=00:19:48.60 bitrate=N/A speed=20.2x    frame=28722 fps=484 q=-0.0 size=N/A time=00:19:57.94 bitrate=N/A speed=20.2x    frame=28911 fps=483 q=-0.0 size=N/A time=00:20:05.82 bitrate=N/A speed=20.1x    frame=29109 fps=482 q=-0.0 size=N/A time=00:20:14.08 bitrate=N/A speed=20.1x    frame=29338 fps=482 q=-0.0 size=N/A time=00:20:23.63 bitrate=N/A speed=20.1x    frame=29535 fps=481 q=-0.0 size=N/A time=00:20:31.85 bitrate=N/A speed=20.1x    frame=29743 fps=480 q=-0.0 size=N/A time=00:20:40.53 bitrate=N/A speed=  20x    frame=29952 fps=480 q=-0.0 size=N/A time=00:20:49.24 bitrate=N/A speed=  20x    frame=30159 fps=479 q=-0.0 size=N/A time=00:20:57.88 bitrate=N/A speed=  20x    frame=30392 fps=479 q=-0.0 size=N/A time=00:21:07.59 bitrate=N/A speed=  20x    frame=30669 fps=479 q=-0.0 size=N/A time=00:21:19.15 bitrate=N/A speed=  20x    frame=30935 fps=480 q=-0.0 size=N/A time=00:21:30.24 bitrate=N/A speed=  20x    frame=31184 fps=480 q=-0.0 size=N/A time=00:21:40.63 bitrate=N/A speed=  20x    frame=31422 fps=480 q=-0.0 size=N/A time=00:21:50.55 bitrate=N/A speed=  20x    frame=31670 fps=480 q=-0.0 size=N/A time=00:22:00.90 bitrate=N/A speed=  20x    frame=31886 fps=479 q=-0.0 size=N/A time=00:22:09.91 bitrate=N/A speed=  20x    frame=32118 fps=479 q=-0.0 size=N/A time=00:22:19.58 bitrate=N/A speed=  20x    frame=32367 fps=479 q=-0.0 size=N/A time=00:22:29.97 bitrate=N/A speed=  20x    frame=32611 fps=479 q=-0.0 size=N/A time=00:22:40.15 bitrate=N/A speed=  20x    frame=32771 fps=478 q=-0.0 size=N/A time=00:22:46.82 bitrate=N/A speed=19.9x    frame=32958 fps=477 q=-0.0 size=N/A time=00:22:54.62 bitrate=N/A speed=19.9x    frame=33168 fps=476 q=-0.0 size=N/A time=00:23:03.38 bitrate=N/A speed=19.9x    frame=33368 fps=476 q=-0.0 size=N/A time=00:23:11.72 bitrate=N/A speed=19.8x    frame=33545 fps=475 q=-0.0 size=N/A time=00:23:19.10 bitrate=N/A speed=19.8x    frame=33708 fps=473 q=-0.0 size=N/A time=00:23:25.90 bitrate=N/A speed=19.7x    frame=33838 fps=472 q=-0.0 size=N/A time=00:23:31.32 bitrate=N/A speed=19.7x    frame=34003 fps=471 q=-0.0 size=N/A time=00:23:38.20 bitrate=N/A speed=19.6x    frame=34184 fps=470 q=-0.0 size=N/A time=00:23:45.75 bitrate=N/A speed=19.6x    frame=34336 fps=469 q=-0.0 size=N/A time=00:23:52.09 bitrate=N/A speed=19.5x    frame=34488 fps=468 q=-0.0 size=N/A time=00:23:58.43 bitrate=N/A speed=19.5x    [Parsed_psnr_10 @ 000001bf62993b80] PSNR y:48.949654 u:50.327919 v:50.379369 average:49.369141 min:38.002599 max:inf
[out#0/null @ 000001bf62715ec0] video:14903KiB audio:271276KiB subtitle:0KiB other streams:0KiB global headers:0KiB muxing overhead: unknown
frame=34683 fps=467 q=-0.0 Lsize=N/A time=00:24:06.57 bitrate=N/A speed=19.5x    
